<svg xmlns="http://www.w3.org/2000/svg" width="78" height="110" viewBox="0 0 78 110"><defs><radialGradient id="monsters_quartzor_noir_body_rock" cx="0.34" cy="0.26" r="0.85"><stop offset="0" stop-color="#A19FA9"/><stop offset="0.45" stop-color="#78767F"/><stop offset="1" stop-color="#313133"/></radialGradient></defs><g transform="translate(0,30)"><polygon points="14,26 15.2,4.9 14,-8 19.6,12.4 22,26" fill="#B4ABE3" stroke="#2A2238" stroke-linejoin="round" stroke-linecap="round" stroke-width="2.4"/><polygon points="22,26 19.6,12.4 14,-8 28.8,4.2 30,26" fill="#897FBE" stroke="#2A2238" stroke-linejoin="round" stroke-linecap="round" stroke-width="2.4"/><path d="M18,23 L13,-2" stroke="#CCC6EC" stroke-width="1.7" stroke-linecap="round" opacity="0.9"/><polygon points="24,18 25.5,-9.3 36,-26 34.6,0.4 34,18" fill="#B4ABE3" stroke="#2A2238" stroke-linejoin="round" stroke-linecap="round" stroke-width="2.4"/><polygon points="34,18 34.6,0.4 36,-26 42.5,-10.2 44,18" fill="#897FBE" stroke="#2A2238" stroke-linejoin="round" stroke-linecap="round" stroke-width="2.4"/><path d="M29,15 L35,-20" stroke="#CCC6EC" stroke-width="1.7" stroke-linecap="round" opacity="0.9"/><polygon points="42,24 43.2,4.2 60,-8 53,11.2 50,24" fill="#B4ABE3" stroke="#2A2238" stroke-linejoin="round" stroke-linecap="round" stroke-width="2.4"/><polygon points="50,24 53,11.2 60,-8 56.8,3.5 58,24" fill="#897FBE" stroke="#2A2238" stroke-linejoin="round" stroke-linecap="round" stroke-width="2.4"/><path d="M46,21 L59,-2" stroke="#CCC6EC" stroke-width="1.7" stroke-linecap="round" opacity="0.9"/><path d="M7.5,49Q4.3,40.6 8.8,33Q12.5,24.2 22.1,20.5Q31.4,16.4 41.4,19.5Q51.7,18.7 59.4,24.7Q65.9,30.9 65.4,39.9Q72.2,46.8 71.4,55.4Q68.3,63.6 58.9,67.5Q52.7,73.4 43.4,73.6Q34.6,76.5 26.2,73.1Q16.4,71.6 10.9,64.6Q5.5,57.6 7.5,49Z" fill="url(#monsters_quartzor_noir_body_rock)" stroke="#2A2238" stroke-linejoin="round" stroke-linecap="round" stroke-width="3.2"/><path d="M21,34.2 l4.4,4.8 l-0.7,6.4" fill="none" stroke="#313133" stroke-width="1.8" stroke-linecap="round" opacity="0.7"/><path d="M23,37.4 l5.3,5.4 l-1.4,6.1" fill="none" stroke="#313133" stroke-width="1.8" stroke-linecap="round" opacity="0.7"/><path d="M56.3,47.5 l7.8,4.2 l-1.8,4.7" fill="none" stroke="#313133" stroke-width="1.8" stroke-linecap="round" opacity="0.7"/><path d="M49.3,49.8 l7.4,5 l-0.6,4.9" fill="none" stroke="#313133" stroke-width="1.8" stroke-linecap="round" opacity="0.7"/><path d="M34,61.3 l7.8,3.5 l-0.9,5.3" fill="none" stroke="#313133" stroke-width="1.8" stroke-linecap="round" opacity="0.7"/><path d="M16.7,54.6 l5.8,3.3 l-1.3,6" fill="none" stroke="#313133" stroke-width="1.8" stroke-linecap="round" opacity="0.7"/><path d="M22.1,64.1Q17.5,64.3 15.7,62.1Q13.3,59.9 16.2,57.8Q17.4,55.2 22.1,54.9Q26.9,53.6 30.7,55.5Q34.3,57.4 32.3,60.1Q32.5,62.4 28.6,63.4Q25.9,65 22.1,64.1Z" fill="#4A4468" stroke="#2A2238" stroke-linejoin="round" stroke-linecap="round" stroke-width="1.8"/><path d="M22,40 Q38,32 56,40 L54,45 Q38,39 24,45Z" fill="#555558" stroke="#2A2238" stroke-linejoin="round" stroke-linecap="round" stroke-width="2.4"/><ellipse cx="31" cy="48" rx="5" ry="4" fill="#313133"/><circle cx="31.5" cy="48" r="2.6" fill="#B4ABE3"/><circle cx="31.5" cy="48" r="6" fill="#897FBE" opacity="0.35"/><ellipse cx="47" cy="48" rx="5" ry="4" fill="#313133"/><circle cx="47.5" cy="48" r="2.6" fill="#B4ABE3"/><circle cx="47.5" cy="48" r="6" fill="#897FBE" opacity="0.35"/><path d="M30,62 l5,-2 l4,3 l5,-3 l5,2" fill="none" stroke="#2A2238" stroke-width="2.4" stroke-linecap="round" stroke-linejoin="round"/><path d="M16,40 Q20,26 34,22" fill="none" stroke="#fff" stroke-width="3" stroke-linecap="round" opacity="0.35"/></g></svg>
