<svg xmlns="http://www.w3.org/2000/svg" width="50" height="150" viewBox="0 0 50 150"><defs><linearGradient id="gear_masse_recif_sword_metal" x1="0" y1="0" x2="1" y2="0.4"><stop offset="0" stop-color="#D6FAFA" stop-opacity="1"/><stop offset="0.5" stop-color="#6FD0D8" stop-opacity="1"/><stop offset="1" stop-color="#2F86A6" stop-opacity="1"/></linearGradient><linearGradient id="gear_masse_recif_sword_wood" x1="0" y1="0" x2="1" y2="0"><stop offset="0" stop-color="#B07A4A" stop-opacity="1"/><stop offset="0.5" stop-color="#7A4E30" stop-opacity="1"/><stop offset="1" stop-color="#4A2B1E" stop-opacity="1"/></linearGradient></defs><rect x="22.3" y="36" width="5.4" height="74" rx="2.4" fill="url(#gear_masse_recif_sword_wood)" stroke="#2A2238" stroke-linejoin="round" stroke-linecap="round" stroke-width="2.4"/><circle cx="25" cy="24" r="17" fill="url(#gear_masse_recif_sword_metal)" stroke="#2A2238" stroke-linejoin="round" stroke-linecap="round" stroke-width="3"/><path d="M39,24 L49,24 L38.15569669100272,28.788282006559363Z" fill="#2F86A6" stroke="#2A2238" stroke-linejoin="round" stroke-linecap="round" stroke-width="2"/><path d="M32,36.12435565298214 L37,44.78460969082653 L27.431074487337025,37.78730854217091Z" fill="#2F86A6" stroke="#2A2238" stroke-linejoin="round" stroke-linecap="round" stroke-width="2"/><path d="M18.000000000000004,36.124355652982146 L13.000000000000005,44.78460969082653 L14.27537779633431,32.99902653561155Z" fill="#2F86A6" stroke="#2A2238" stroke-linejoin="round" stroke-linecap="round" stroke-width="2"/><path d="M11,24 L1,24.000000000000004 L11.844303308997283,19.211717993440637Z" fill="#2F86A6" stroke="#2A2238" stroke-linejoin="round" stroke-linecap="round" stroke-width="2"/><path d="M17.999999999999993,11.875644347017861 L12.99999999999999,3.2153903091734755 L22.568925512662975,10.212691457829088Z" fill="#2F86A6" stroke="#2A2238" stroke-linejoin="round" stroke-linecap="round" stroke-width="2"/><path d="M32,11.87564434701786 L37,3.215390309173472 L35.72462220366569,15.000973464388446Z" fill="#2F86A6" stroke="#2A2238" stroke-linejoin="round" stroke-linecap="round" stroke-width="2"/><path d="M16,16 Q22,10 30,12" stroke="#fff" stroke-width="2.4" fill="none" stroke-linecap="round" opacity="0.8"/><circle cx="25" cy="24" r="8.36" fill="#C9A7FF" opacity="0.28"/><path d="M25,19.6 L28.52,24 L25,28.4 L21.48,24Z" fill="#C9A7FF" stroke="#2A2238" stroke-linejoin="round" stroke-linecap="round" stroke-width="1.6"/><circle cx="24.12" cy="22.68" r="0.9680000000000001" fill="#fff"/><rect x="21.5" y="98" width="7" height="18" rx="3" fill="#7A4E30" stroke="#2A2238" stroke-linejoin="round" stroke-linecap="round" stroke-width="2.4"/><path d="M22,100 l6,3 M22,108 l6,3 M22,116 l6,3" stroke="#4A2B1E" stroke-width="1.6"/><circle cx="25" cy="119" r="4.4" fill="#D9A94E" stroke="#2A2238" stroke-linejoin="round" stroke-linecap="round" stroke-width="2.2"/></svg>
