<svg xmlns="http://www.w3.org/2000/svg" width="100" height="100" viewBox="0 0 100 100"><g transform="translate(20,26) scale(1.0)"><defs><radialGradient id="monsters_echo_portrait_echo" cx="0.4" cy="0.3" r="0.85"><stop offset="0" stop-color="#F0FFFF"/><stop offset="0.45" stop-color="#9FE8F0"/><stop offset="1" stop-color="#4F9FB8"/></radialGradient></defs><path d="M10,40 Q6,12 30,8 Q54,12 50,40 Q46,52 40,46 Q35,56 30,48 Q25,56 20,46 Q14,52 10,40Z" fill="url(#monsters_echo_portrait_echo)" stroke="#2A2238" stroke-linejoin="round" stroke-linecap="round" stroke-width="2.8" opacity="0.92"/><ellipse cx="36" cy="26" rx="4" ry="5.6" fill="#2A2238"/><ellipse cx="24" cy="26" rx="3.2" ry="5" fill="#2A2238"/><circle cx="35" cy="24" r="1.4" fill="#fff"/><path d="M26,36 q4,3 8,0" fill="none" stroke="#2A2238" stroke-width="2" stroke-linecap="round"/><path d="M23.1,4.7Q25.7,2.7 29.8,3.4Q34.2,2.3 37.3,4.2Q39.8,6.5 37.2,8.9Q38,11.8 34.3,13.3Q30.2,14.9 26.3,13Q22.5,11.9 22.7,9.1Q20.5,6.8 23.1,4.7Z" fill="#7FF3FF" stroke="#2A2238" stroke-linejoin="round" stroke-linecap="round" stroke-width="1.6"/></g></svg>
