<svg xmlns="http://www.w3.org/2000/svg" width="90" height="100" viewBox="0 0 90 100"><defs><linearGradient id="gear_capuche_ombre_front_hm" x1="0" y1="0" x2="0.6" y2="1"><stop offset="0" stop-color="#CFCBE0" stop-opacity="1"/><stop offset="0.5" stop-color="#7E7A92" stop-opacity="1"/><stop offset="1" stop-color="#4A4560" stop-opacity="1"/></linearGradient><linearGradient id="gear_capuche_ombre_front_hd" x1="0" y1="0" x2="0" y2="1"><stop offset="0" stop-color="#7E7A92" stop-opacity="1"/><stop offset="1" stop-color="#1E1B2E" stop-opacity="1"/></linearGradient></defs><path d="M24,52 Q45,60 66,52 L62,64 Q45,70 28,64Z" fill="#E0413F" stroke="#2A2238" stroke-linejoin="round" stroke-linecap="round" stroke-width="1.4" opacity="0.5"/><path d="M15,80 C8,40 22,13 45,9 C68,13 82,40 75,80 Q70,70 67,52 Q62,36 45,34 Q28,36 23,52 Q20,70 15,80Z" fill="url(#gear_capuche_ombre_front_hm)" stroke="#2A2238" stroke-linejoin="round" stroke-linecap="round" stroke-width="3" /><path d="M23,52 Q28,36 45,34 Q62,36 67,52 Q60,44 45,42 Q30,44 23,52Z" fill="#1E1B2E" stroke="#2A2238" stroke-linejoin="round" stroke-linecap="round" stroke-width="1.6" /><path d="M26,24 Q36,14 50,13" fill="none" stroke="#CFCBE0" stroke-width="2.4" stroke-linecap="round" stroke-linejoin="round" opacity="0.7"/><path d="M47.4,17.4 A6.6000000000000005,6.6000000000000005 0 1 0 47.4,30.6 A5.1,5.1 0 1 1 47.4,17.4Z" fill="#E0413F" stroke="#2A2238" stroke-linejoin="round" stroke-linecap="round" stroke-width="1.6" /></svg>
