<svg xmlns="http://www.w3.org/2000/svg" width="100" height="100" viewBox="0 0 100 100"><g transform="translate(26,38)"><defs><linearGradient id="monsters_boletin_portrait_stem" x1="0" y1="0" x2="1" y2="0"><stop offset="0" stop-color="#FFF6E4" stop-opacity="1"/><stop offset="0.55" stop-color="#F3E4C4" stop-opacity="1"/><stop offset="1" stop-color="#D4B48C" stop-opacity="1"/></linearGradient></defs><path d="M8,6 Q24,0 40,6 Q46,26 42,44 Q24,52 6,44 Q2,26 8,6Z" fill="url(#monsters_boletin_portrait_stem)" stroke="#2A2238" stroke-linejoin="round" stroke-linecap="round" stroke-width="3"/><path d="M34,10 Q39,26 36,40" fill="none" stroke="#A88660" stroke-width="1.6" opacity="0.6"/><path d="M19,15 L28,19" stroke="#2A2238" stroke-width="3.6" stroke-linecap="round"/><path d="M41,15 L33,19" stroke="#2A2238" stroke-width="3.2" stroke-linecap="round"/><ellipse cx="25" cy="24" rx="4" ry="4.6" fill="#fff" stroke="#2A2238" stroke-linejoin="round" stroke-linecap="round" stroke-width="1.8"/><circle cx="26.2" cy="25" r="2.2" fill="#2A2238"/><circle cx="25.4" cy="23.8" r="0.8" fill="#fff"/><ellipse cx="36.5" cy="24" rx="3.4" ry="4.2" fill="#fff" stroke="#2A2238" stroke-linejoin="round" stroke-linecap="round" stroke-width="1.8"/><circle cx="37.5" cy="25" r="1.9" fill="#2A2238"/><path d="M24,36 Q30,31 37,35" fill="none" stroke="#2A2238" stroke-width="2.4" stroke-linecap="round"/><path d="M31,33.5 l1.5,3 l1.6,-2.6Z" fill="#fff" stroke="#2A2238" stroke-width="1"/><ellipse cx="40" cy="30" rx="3" ry="2" fill="#F08A8A" opacity="0.4"/></g><g transform="translate(6,2)"><defs><radialGradient id="monsters_boletin_portrait_cap" cx="0.35" cy="0.25" r="0.85"><stop offset="0" stop-color="#E98A62"/><stop offset="0.45" stop-color="#C8573E"/><stop offset="1" stop-color="#8E3620"/></radialGradient><linearGradient id="monsters_boletin_portrait_cry" x1="0" y1="0" x2="1" y2="0"><stop offset="0" stop-color="#F1E6FF" stop-opacity="1"/><stop offset="0.45" stop-color="#C9A7FF" stop-opacity="1"/><stop offset="1" stop-color="#7A5BC7" stop-opacity="1"/></linearGradient></defs><path d="M8,46 Q42,58 80,46 Q60,52 42,52 Q24,52 8,46Z" fill="#D4B48C" stroke="#2A2238" stroke-linejoin="round" stroke-linecap="round" stroke-width="2.6"/><path d="M18,48 l2,4 M28,50 l1,4 M38,51 l0,4 M48,51 l0,4 M58,50 l-1,4 M68,48 l-2,4" stroke="#A88660" stroke-width="1.4"/><path d="M4,44 Q2,22 22,12 Q42,2 62,10 Q84,20 84,42 Q84,50 76,48 Q60,44 44,46 Q24,48 12,50 Q4,50 4,44Z" fill="url(#monsters_boletin_portrait_cap)" stroke="#2A2238" stroke-linejoin="round" stroke-linecap="round" stroke-width="3.2"/><path d="M19.1,17.8Q22.2,16.8 25.2,17.8Q28.5,17.8 30.6,19.6Q31.7,21.9 30.1,24Q29,26.3 25.8,27.2Q22.4,27.7 19.6,26.1Q17.3,24.4 17.7,22.1Q17,19.7 19.1,17.8Z" fill="#F3E4C4" stroke="#8E3620" stroke-width="1.4"/><path d="M49.5,16.4Q47.3,17.7 44.5,17.5Q41.9,17.8 39.8,16.7Q38.1,15.3 38.6,13.5Q39,11.8 41.2,10.9Q43.5,10 45.9,10.6Q48.8,11 50.3,12.7Q51.2,14.7 49.5,16.4Z" fill="#F3E4C4" stroke="#8E3620" stroke-width="1.4"/><path d="M51.4,32.4Q48.8,30.5 49.5,28Q51.3,25.6 55.4,24.9Q59.2,24.3 62.5,25.7Q65.9,27.1 66.4,29.5Q66.7,32 63.8,33.8Q60.8,35.3 56.9,34.9Q53.3,34.5 51.4,32.4Z" fill="#F3E4C4" stroke="#8E3620" stroke-width="1.4"/><path d="M30.6,33.9Q31.9,32.5 34.2,32.3Q36.5,32.7 37.5,34.2Q39.4,35.3 39.4,37Q38.4,38.7 36,39.2Q33.8,40 31.5,39.3Q29.4,38.4 28.9,36.7Q28.9,35 30.6,33.9Z" fill="#F3E4C4" stroke="#8E3620" stroke-width="1.4"/><path d="M73.4,37.8Q74,39.1 73,40.4Q71.4,41.3 69.4,41.1Q67.4,41 66.1,39.7Q65.1,38.3 65.8,36.8Q66.9,35.5 68.9,35.3Q70.6,34.6 72.5,35.1Q73.8,36.3 73.4,37.8Z" fill="#F3E4C4" stroke="#8E3620" stroke-width="1.4"/><path d="M9.7,37.3Q10.5,36 12.3,35.5Q13.9,34.8 15.7,35.2Q17.3,35.9 17.5,37.3Q17.9,38.6 16.9,39.7Q15.8,40.6 14.1,40.7Q12.3,40.8 11,39.9Q9.6,38.8 9.7,37.3Z" fill="#F3E4C4" stroke="#8E3620" stroke-width="1.4"/><path d="M14,26 Q24,14 38,12" fill="none" stroke="#FFC6A4" stroke-width="3" stroke-linecap="round" opacity="0.85"/><polygon points="50,13 52,4 57,11 55,15" fill="url(#monsters_boletin_portrait_cry)" stroke="#2A2238" stroke-linejoin="round" stroke-linecap="round" stroke-width="2"/><polygon points="57,19 59,7 66,1.5 71,10 69,19" fill="url(#monsters_boletin_portrait_cry)" stroke="#2A2238" stroke-linejoin="round" stroke-linecap="round" stroke-width="2.4"/><path d="M62,8 L64,17" stroke="#fff" stroke-width="1.6" stroke-linecap="round" opacity="0.85"/></g></svg>
