<svg xmlns="http://www.w3.org/2000/svg" width="64" height="64" viewBox="0 0 64 64"><defs><radialGradient id="icons_spells_fureur_braise_bg" cx="0.35" cy="0.3" r="0.85"><stop offset="0" stop-color="#ffe39a"/><stop offset="0.45" stop-color="#C9912E"/><stop offset="1" stop-color="#5E3E14"/></radialGradient><linearGradient id="icons_spells_fureur_braise_rim" x1="0" y1="0" x2="0" y2="1"><stop offset="0" stop-color="#F2CD78" stop-opacity="1"/><stop offset="1" stop-color="#8A6326" stop-opacity="1"/></linearGradient></defs><circle cx="32" cy="32" r="29" fill="url(#icons_spells_fureur_braise_rim)" stroke="#2A2238" stroke-linejoin="round" stroke-linecap="round" stroke-width="3"/><circle cx="32" cy="32" r="23.5" fill="url(#icons_spells_fureur_braise_bg)" stroke="#2A2238" stroke-linejoin="round" stroke-linecap="round" stroke-width="2.4"/><path d="M29,43.25 Q17.6,34.7 24.25,22.35 Q27.1,30.9 30.9,27.1 Q29,16.65 35.65,12.850000000000001 Q33.75,25.2 39.45,30.9 Q41.35,41.35 29,43.25Z" fill="#FF8A3D" stroke="#2A2238" stroke-linejoin="round" stroke-linecap="round" stroke-width="2"/><path d="M29,39.45 Q24.25,32.8 29.95,26.15 Q35.65,32.8 29,39.45Z" fill="#FFE08A"/><circle cx="45" cy="45" r="11" fill="#5E3E14" stroke="#2A2238" stroke-linejoin="round" stroke-linecap="round" stroke-width="2"/><path d="M45,38 L50.5,45 H47.5 V51.5 H42.5 V45 H39.5Z" fill="#9BE07A" stroke="#2A2238" stroke-linejoin="round" stroke-linecap="round" stroke-width="2"/><path d="M14,22 A20,20 0 0 1 26,11" fill="none" stroke="#fff" stroke-width="2.6" stroke-linecap="round" opacity="0.45"/></svg>
