<svg xmlns="http://www.w3.org/2000/svg" width="150" height="210" viewBox="0 0 150 210"><defs><linearGradient id="harvest_chene_bk" x1="0" y1="0" x2="1" y2="0"><stop offset="0" stop-color="#C08A5A" stop-opacity="1"/><stop offset="1" stop-color="#6B4028" stop-opacity="1"/></linearGradient><radialGradient id="harvest_chene_lv" cx="0.35" cy="0.3" r="0.85"><stop offset="0" stop-color="#8CC152"/><stop offset="0.45" stop-color="#5E9A3E"/><stop offset="1" stop-color="#3E6B34"/></radialGradient></defs><ellipse cx="75" cy="196" rx="46" ry="14.7" fill="#2E3F5C" opacity="0.28"/><path d="M59,196 Q63,136 71,86 L79,86 Q87,136 91,196Z" fill="url(#harvest_chene_bk)" stroke="#2A2238" stroke-linejoin="round" stroke-linecap="round" stroke-width="3"/><path d="M15,109.4Q6.4,102.9 7.4,92.5Q-0.3,84.3 2.4,74.9Q5.9,65.5 17.6,61.9Q25.3,55.9 36.1,57.4Q46.3,51.5 57,54.1Q68.5,57.1 72.6,66.8Q77.8,74.7 73.2,83.8Q77.3,92.6 71.8,100.2Q67.5,109 56.4,111.4Q47,116.8 36.2,113.8Q23.9,115.9 15,109.4Z" fill="url(#harvest_chene_lv)" stroke="#2A2238" stroke-linejoin="round" stroke-linecap="round" stroke-width="2.8"/><path d="M83,98.1Q74.9,92.4 75.6,83.5Q70.6,74.8 75.5,66.7Q78.9,57.5 89.9,54.3Q98.9,49.3 109.6,52.4Q120.8,48.6 130.5,53.2Q140.9,57.7 143,67.7Q151.1,75.6 148.7,85.3Q148.6,95.8 138.5,102.1Q131.1,109.8 118.8,109.6Q108.3,114.2 97.7,110Q87.1,107.3 83,98.1Z" fill="url(#harvest_chene_lv)" stroke="#2A2238" stroke-linejoin="round" stroke-linecap="round" stroke-width="2.8"/><path d="M43.4,27.9Q48.3,17.6 60.7,14.7Q72.4,7.7 85.7,11Q100.1,12.1 107.7,22.2Q116.8,30.1 114.7,41.6Q120.8,51.4 115.2,61Q115,73.5 103.6,80.5Q92.6,89 77.5,86.9Q62.9,89.7 51.5,81.7Q37.7,77.4 33.7,65.6Q24.6,56.2 28.4,44.6Q30.6,33.7 43.4,27.9Z" fill="url(#harvest_chene_lv)" stroke="#2A2238" stroke-linejoin="round" stroke-linecap="round" stroke-width="2.8"/><path d="M45.8,95.1Q39.5,88.9 42.3,82.1Q42.8,74 51.9,69.5Q59.5,63 71.2,63.3Q82.7,61 92.3,66.1Q101.7,70 103.2,78.4Q111.9,83.5 111.5,91.1Q111.1,98.7 101.7,103.3Q98.3,110.7 88.3,113.1Q79,118.3 68,116.4Q58,113.5 54.4,105.4Q46.5,101.8 45.8,95.1Z" fill="url(#harvest_chene_lv)" stroke="#2A2238" stroke-linejoin="round" stroke-linecap="round" stroke-width="2.8"/><ellipse cx="45" cy="92" rx="4" ry="5" fill="#A77B4F" stroke="#2A2238" stroke-linejoin="round" stroke-linecap="round" stroke-width="1.4"/><path d="M41,89 h8" stroke="#6B4028" stroke-width="2.4"/><ellipse cx="97" cy="76" rx="4" ry="5" fill="#A77B4F" stroke="#2A2238" stroke-linejoin="round" stroke-linecap="round" stroke-width="1.4"/><path d="M93,73 h8" stroke="#6B4028" stroke-width="2.4"/><ellipse cx="79" cy="100" rx="4" ry="5" fill="#A77B4F" stroke="#2A2238" stroke-linejoin="round" stroke-linecap="round" stroke-width="1.4"/><path d="M75,97 h8" stroke="#6B4028" stroke-width="2.4"/><path d="M45,46 Q61,24 83,20" fill="none" stroke="#fff" stroke-width="3" opacity="0.35" stroke-linecap="round"/><path d="M115,29 l1.8,5 5,1.8 -5,1.8 -1.8,5 -1.8,-5 -5,-1.8 5,-1.8Z" fill="#FFF8D8" opacity="0.95"/><path d="M31,95.1 l1.3,3.5 3.5,1.3 -3.5,1.3 -1.3,3.5 -1.3,-3.5 -3.5,-1.3 3.5,-1.3Z" fill="#FFF8D8" opacity="0.95"/></svg>
