<svg xmlns="http://www.w3.org/2000/svg" width="64" height="64" viewBox="0 0 64 64"><ellipse cx="32" cy="56" rx="20" ry="4.5" fill="#2E3F5C" opacity="0.25"/><path d="M24,10 h16 v6 Q52,24 50,40 Q48,54 32,54 Q16,54 14,40 Q12,24 24,16Z" fill="#E8F4F6" fill-opacity="0.55" stroke="#2A2238" stroke-linejoin="round" stroke-linecap="round" stroke-width="2.6"/><path d="M16,34 Q32,28 48,34 Q48,52 32,52 Q16,52 16,34Z" fill="#A992E8"/><polygon points="28,50 28.6,41.3 32,36 32,44.4 32,50" fill="#D8CCFF" stroke="#2A2238" stroke-linejoin="round" stroke-linecap="round" stroke-width="1.4"/><polygon points="32,50 32,44.4 32,36 35.4,41 36,50" fill="#A992E8" stroke="#2A2238" stroke-linejoin="round" stroke-linecap="round" stroke-width="1.4"/><path d="M30,47 L31,42" stroke="#F4F0FF" stroke-width="1" stroke-linecap="round" opacity="0.9"/><rect x="22" y="5" width="20" height="7" rx="2" fill="#8A5A3B" stroke="#2A2238" stroke-linejoin="round" stroke-linecap="round" stroke-width="2.2"/><path d="M19,24 Q17,32 18,38" fill="none" stroke="#fff" stroke-width="2.4" stroke-linecap="round" opacity="0.85"/></svg>
