<svg xmlns="http://www.w3.org/2000/svg" width="110" height="140" viewBox="0 0 110 140"><ellipse cx="55" cy="128" rx="44" ry="12" fill="#2E3F5C" opacity="0.28"/><path d="M13,126 L17,24 M97,126 L93,24" stroke="#2A2238" stroke-width="10" stroke-linecap="round"/><path d="M13,126 L17,24 M97,126 L93,24" stroke="#8A5A3B" stroke-width="5.5" stroke-linecap="round"/><rect x="11" y="36" width="88" height="9" rx="3" fill="#C08A5A" stroke="#2A2238" stroke-linejoin="round" stroke-linecap="round" stroke-width="2.4"/><rect x="11" y="106" width="88" height="9" rx="3" fill="#C08A5A" stroke="#2A2238" stroke-linejoin="round" stroke-linecap="round" stroke-width="2.4"/><path d="M25,110 L25,26 L29.5,16 L34,26 L34,110Z" fill="#C9D5E0" stroke="#2A2238" stroke-linejoin="round" stroke-linecap="round" stroke-width="2"/><path d="M29.5,22 V106" stroke="#fff" stroke-width="1.2" opacity="0.6"/><rect x="19" y="98" width="21" height="5" rx="2" fill="#D9A94E" stroke="#2A2238" stroke-linejoin="round" stroke-linecap="round" stroke-width="1.6"/><path d="M49,112 V4" stroke="#2A2238" stroke-width="6" stroke-linecap="round"/><path d="M49,112 V4" stroke="#6B4028" stroke-width="3" stroke-linecap="round"/><path d="M43,10 L49,-10 L55,10Z" fill="#C9D5E0" stroke="#2A2238" stroke-linejoin="round" stroke-linecap="round" stroke-width="2"/><path d="M69,112 V24" stroke="#2A2238" stroke-width="6" stroke-linecap="round"/><path d="M69,112 V24" stroke="#8A5A3B" stroke-width="3" stroke-linecap="round"/><path d="M69,24 Q89,20 87,42 Q77,38 69,40Z" fill="#AAB6C2" stroke="#2A2238" stroke-linejoin="round" stroke-linecap="round" stroke-width="2"/><path d="M81,110 L81,60 L85,50 L89,60 L89,110Z" fill="#D8E0E8" stroke="#2A2238" stroke-linejoin="round" stroke-linecap="round" stroke-width="2"/><path d="M85,56 V106" stroke="#fff" stroke-width="1.2" opacity="0.6"/></svg>
